<?xml version="1.0" encoding="utf-8"?>
<!-- Generator: Adobe Illustrator 16.0.0, SVG Export Plug-In . SVG Version: 6.00 Build 0)  -->
<!DOCTYPE svg PUBLIC "-//W3C//DTD SVG 1.1//EN" "http://www.w3.org/Graphics/SVG/1.1/DTD/svg11.dtd">
<svg version="1.1" id="Calque_1" xmlns="http://www.w3.org/2000/svg" xmlns:xlink="http://www.w3.org/1999/xlink" x="0px" y="0px"
	 width="277.25px" height="276.583px" viewBox="0 0 277.25 276.583" enable-background="new 0 0 277.25 276.583"
	 xml:space="preserve">
<g>
	<g>
		<g>
			<g>
				<path fill="#E6E7E9" d="M106.618,196.885c2.321,0.291,4.696,0.533,7.115,0.727c2.411,0.192,4.49,0.283,6.237,0.283
					c14.894,0,28.584-3.185,41.06-9.573c12.488-6.384,23.369-15.957,32.651-28.73c3.489-4.835,6.197-9.87,8.14-15.093
					c1.924-5.223,3.135-10.443,3.625-15.673c0.477-5.224,0.192-10.155-0.871-14.804c-1.07-4.642-3.053-8.799-5.948-12.476
					c-2.519,2.322-5.179,5.319-7.984,8.994c-2.805,3.683-5.76,7.647-8.854,11.901c-3.096,4.255-6.239,8.656-9.437,13.209
					c-3.184,4.544-6.335,8.848-9.422,12.916c-5.623,6.77-11.135,12.67-16.551,17.698c-5.416,5.033-10.837,9.387-16.254,13.063
					c-5.414,3.674-10.982,6.775-16.681,9.29c-5.719,2.514-11.668,4.732-17.849,6.666c0.952,0.207,2.466,0.435,4.49,0.738
					C102.115,196.305,104.297,196.603,106.618,196.885"/>
				<path fill="#E6E7E9" d="M52.635,190.35c5.223,0.195,11.508,0.728,18.864,1.603c7.351,0.865,14.023,1.79,20.025,2.758
					c5.996-1.741,11.461-4.401,16.399-7.986c4.939-3.57,9.622-7.64,14.078-12.185c4.441-4.544,8.752-9.483,12.917-14.802
					c4.151-5.319,8.455-10.597,12.911-15.819c3.487-4.061,7.308-8.316,11.466-12.771c4.158-4.449,8.317-8.705,12.476-12.773
					c4.165-4.061,8.323-7.833,12.481-11.321c4.166-3.474,7.985-6.376,11.467-8.704c-3.289-3.281-7.252-6.188-11.901-8.703
					c-4.642-2.521-9.679-4.594-15.086-6.238c-5.423-1.643-10.983-2.853-16.688-3.633c-5.714-0.767-11.178-1.16-16.399-1.16
					c-11.425,0-22.449,1.644-33.087,4.938C91.911,86.84,82.531,91.289,74.4,96.896c-8.123,5.617-14.617,12.15-19.452,19.599
					c-4.828,7.446-7.348,15.237-7.536,23.362c0,6.375,1.783,11.748,5.354,16.107c3.551,4.353,9.002,6.721,16.33,7.107
					c8.289,0.388,15.852-0.87,22.698-3.764c6.846-2.916,12.868-6.687,18.078-11.328c5.007-4.643,9.006-9.527,11.998-14.651
					c2.984-5.127,4.49-9.728,4.49-13.788v-0.297c0-4.063-1.168-7.254-3.49-9.574c-2.326-2.32-5.415-3.578-9.29-3.771
					c-3.875-0.222-7.494,0.504-10.886,2.162c-3.384,1.651-6.044,3.453-7.971,5.381c-1.941,1.934-3.199,3.44-3.779,4.504
					c-0.58,1.063-1.064,1.498-1.45,1.299c-0.395-0.188-0.29-0.912,0.29-2.176c0.58-1.25,1.644-2.756,3.192-4.498
					c1.747-2.127,4.496-4.352,8.274-6.672c3.772-2.32,8.172-3.289,13.207-2.901c4.449,0.194,8.269,1.698,11.453,4.519
					c3.199,2.824,4.794,6.85,4.794,12.094c0,5.443-1.547,10.935-4.643,16.482c-3.093,5.538-7.356,10.541-12.771,15.01
					c-5.609,4.669-12.233,8.407-19.879,11.225c-7.641,2.832-15.916,4.041-24.819,3.647c-10.631-0.58-18.955-3.19-24.958-7.833
					c-5.995-4.648-8.905-11.508-8.697-20.613c0.193-8.703,3.24-16.777,9.139-24.231c5.899-7.446,13.588-13.933,23.072-19.444
					c9.476-5.519,20.169-9.865,32.072-13.057c11.894-3.197,24.038-4.793,36.423-4.793c5.989,0,12.047,0.389,18.133,1.161
					c6.099,0.78,11.95,1.989,17.565,3.632c5.609,1.639,10.832,3.677,15.666,6.094c4.83,2.426,9.194,5.271,13.07,8.559
					c1.741-1.16,4.393-2.758,7.977-4.787c3.58-2.031,7.205-3.82,10.881-5.367c3.867-1.547,8.219-2.9,13.068-4.068
					c4.83-1.154,9.961-1.74,15.377-1.74c3.869,0,7.149,0.49,9.871,1.457c2.701,0.967,4.828,1.935,6.383,2.894
					c0.283,0.228,0.543,0.461,0.793,0.696C243.461,35.664,194.916,1.432,138.37,1.432C62.645,1.432,1.256,62.82,1.256,138.547
					c0,19.391,4.034,37.838,11.294,54.559c2.041-1.135,5.43-1.906,10.189-2.313C30.668,190.116,40.637,189.964,52.635,190.35"/>
				<path fill="#E6E7E9" d="M265.971,88.262c-0.295,0.01-0.59-0.211-0.879-0.648c-0.394-0.58-1.36-1.354-2.914-2.32
					c-1.154-0.779-2.998-1.498-5.506-2.184c-2.521-0.676-5.623-1.016-9.291-1.016c-4.648,0-9.291,0.588-13.933,1.742
					c-4.649,1.16-9.002,2.617-13.063,4.351c-3.875,1.748-7.397,3.634-10.588,5.665c-3.199,2.031-5.472,3.627-6.824,4.788
					c4.254,4.841,7.5,10.069,9.726,15.673c2.224,5.615,3.377,11.418,3.481,17.421c0.096,5.995-0.678,11.896-2.321,17.69
					c-1.65,5.809-4.214,11.229-7.695,16.268c-4.054,5.994-9.187,11.218-15.377,15.673c-6.194,4.448-12.965,8.124-20.321,11.024
					c-7.356,2.894-14.94,5.028-22.774,6.389c-7.841,1.348-15.446,2.018-22.788,2.018c-7.55,0-15.093-0.139-22.636-0.43
					c-7.543-0.282-13.256-0.627-17.123-1.014c-4.062,0.387-8.856,0.773-14.362,1.16c-5.526,0.388-10.306,0.581-14.375,0.581H37.963
					c-5.699,0-10.582-0.146-14.644-0.437c-3.088-0.221-5.671-0.585-7.756-1.081c22.455,45.097,69.008,76.086,122.807,76.086
					c75.728,0,137.114-61.388,137.114-137.114C275.484,120.795,272.111,103.83,265.971,88.262"/>
			</g>
		</g>
		<g>
			<g>
				<path fill="#E6E7E9" d="M106.618,196.885c2.321,0.291,4.696,0.533,7.115,0.727c2.411,0.192,4.49,0.283,6.237,0.283
					c14.894,0,28.584-3.185,41.06-9.573c12.488-6.384,23.369-15.957,32.651-28.73c3.489-4.835,6.197-9.87,8.14-15.093
					c1.924-5.223,3.135-10.443,3.625-15.673c0.477-5.224,0.192-10.155-0.871-14.804c-1.07-4.642-3.053-8.799-5.948-12.476
					c-2.519,2.322-5.179,5.319-7.984,8.994c-2.805,3.683-5.76,7.647-8.854,11.901c-3.096,4.255-6.239,8.656-9.437,13.209
					c-3.184,4.544-6.335,8.848-9.422,12.916c-5.623,6.77-11.135,12.67-16.551,17.698c-5.416,5.033-10.837,9.387-16.254,13.063
					c-5.414,3.674-10.982,6.775-16.681,9.29c-5.719,2.514-11.668,4.732-17.849,6.666c0.952,0.207,2.466,0.435,4.49,0.738
					C102.115,196.305,104.297,196.603,106.618,196.885"/>
				<path fill="#E6E7E9" d="M52.635,190.35c5.223,0.195,11.508,0.728,18.864,1.603c7.351,0.865,14.023,1.79,20.025,2.758
					c5.996-1.741,11.461-4.401,16.399-7.986c4.939-3.57,9.622-7.64,14.078-12.185c4.441-4.544,8.752-9.483,12.917-14.802
					c4.151-5.319,8.455-10.597,12.911-15.819c3.487-4.061,7.308-8.316,11.466-12.771c4.158-4.449,8.317-8.705,12.476-12.773
					c4.165-4.061,8.323-7.833,12.481-11.321c4.166-3.474,7.985-6.376,11.467-8.704c-3.289-3.281-7.252-6.188-11.901-8.703
					c-4.642-2.521-9.679-4.594-15.086-6.238c-5.423-1.643-10.983-2.853-16.688-3.633c-5.714-0.767-11.178-1.16-16.399-1.16
					c-11.425,0-22.449,1.644-33.087,4.938C91.911,86.84,82.531,91.289,74.4,96.896c-8.123,5.617-14.617,12.15-19.452,19.599
					c-4.828,7.446-7.348,15.237-7.536,23.362c0,6.375,1.783,11.748,5.354,16.107c3.551,4.353,9.002,6.721,16.33,7.107
					c8.289,0.388,15.852-0.87,22.698-3.764c6.846-2.916,12.868-6.687,18.078-11.328c5.007-4.643,9.006-9.527,11.998-14.651
					c2.984-5.127,4.49-9.728,4.49-13.788v-0.297c0-4.063-1.168-7.254-3.49-9.574c-2.326-2.32-5.415-3.578-9.29-3.771
					c-3.875-0.222-7.494,0.504-10.886,2.162c-3.384,1.651-6.044,3.453-7.971,5.381c-1.941,1.934-3.199,3.44-3.779,4.504
					c-0.58,1.063-1.064,1.498-1.45,1.299c-0.395-0.188-0.29-0.912,0.29-2.176c0.58-1.25,1.644-2.756,3.192-4.498
					c1.747-2.127,4.496-4.352,8.274-6.672c3.772-2.32,8.172-3.289,13.207-2.901c4.449,0.194,8.269,1.698,11.453,4.519
					c3.199,2.824,4.794,6.85,4.794,12.094c0,5.443-1.547,10.935-4.643,16.482c-3.093,5.538-7.356,10.541-12.771,15.01
					c-5.609,4.669-12.233,8.407-19.879,11.225c-7.641,2.832-15.916,4.041-24.819,3.647c-10.631-0.58-18.955-3.19-24.958-7.833
					c-5.995-4.648-8.905-11.508-8.697-20.613c0.193-8.703,3.24-16.777,9.139-24.231c5.899-7.446,13.588-13.933,23.072-19.444
					c9.476-5.519,20.169-9.865,32.072-13.057c11.894-3.197,24.038-4.793,36.423-4.793c5.989,0,12.047,0.389,18.133,1.161
					c6.099,0.78,11.95,1.989,17.565,3.632c5.609,1.639,10.832,3.677,15.666,6.094c4.83,2.426,9.194,5.271,13.07,8.559
					c1.741-1.16,4.393-2.758,7.977-4.787c3.58-2.031,7.205-3.82,10.881-5.367c3.867-1.547,8.219-2.9,13.068-4.068
					c4.83-1.154,9.961-1.74,15.377-1.74c3.869,0,7.149,0.49,9.871,1.457c2.701,0.967,4.828,1.935,6.383,2.894
					c0.283,0.228,0.543,0.461,0.793,0.696C243.461,35.664,194.916,1.432,138.37,1.432C62.645,1.432,1.256,62.82,1.256,138.547
					c0,19.391,4.034,37.838,11.294,54.559c2.041-1.135,5.43-1.906,10.189-2.313C30.668,190.116,40.637,189.964,52.635,190.35"/>
				<path fill="#E6E7E9" d="M265.971,88.262c-0.295,0.01-0.59-0.211-0.879-0.648c-0.394-0.58-1.36-1.354-2.914-2.32
					c-1.154-0.779-2.998-1.498-5.506-2.184c-2.521-0.676-5.623-1.016-9.291-1.016c-4.648,0-9.291,0.588-13.933,1.742
					c-4.649,1.16-9.002,2.617-13.063,4.351c-3.875,1.748-7.397,3.634-10.588,5.665c-3.199,2.031-5.472,3.627-6.824,4.788
					c4.254,4.841,7.5,10.069,9.726,15.673c2.224,5.615,3.377,11.418,3.481,17.421c0.096,5.995-0.678,11.896-2.321,17.69
					c-1.65,5.809-4.214,11.229-7.695,16.268c-4.054,5.994-9.187,11.218-15.377,15.673c-6.194,4.448-12.965,8.124-20.321,11.024
					c-7.356,2.894-14.94,5.028-22.774,6.389c-7.841,1.348-15.446,2.018-22.788,2.018c-7.55,0-15.093-0.139-22.636-0.43
					c-7.543-0.282-13.256-0.627-17.123-1.014c-4.062,0.387-8.856,0.773-14.362,1.16c-5.526,0.388-10.306,0.581-14.375,0.581H37.963
					c-5.699,0-10.582-0.146-14.644-0.437c-3.088-0.221-5.671-0.585-7.756-1.081c22.455,45.097,69.008,76.086,122.807,76.086
					c75.728,0,137.114-61.388,137.114-137.114C275.484,120.795,272.111,103.83,265.971,88.262"/>
			</g>
		</g>
	</g>
</g>
</svg>
